<mxfile host="app.diagrams.net" modified="2024-05-28T20:52:12.779Z" agent="Mozilla/5.0 (Windows NT 10.0; Win64; x64) AppleWebKit/537.36 (KHTML, like Gecko) Chrome/125.0.0.0 Safari/537.36" etag="_zyCSpQbqGkApOflOcfN" version="24.4.9" type="device">
  <diagram name="Página-1" id="tat_hiyh869VZm5MkPv7">
    <mxGraphModel dx="3462" dy="1787" grid="1" gridSize="10" guides="1" tooltips="1" connect="1" arrows="1" fold="1" page="1" pageScale="1" pageWidth="827" pageHeight="1169" math="0" shadow="0">
      <root>
        <mxCell id="0" />
        <mxCell id="1" parent="0" />
        <mxCell id="5CXv-RjiL0KrmXFOa_hq-29" style="edgeStyle=orthogonalEdgeStyle;rounded=0;orthogonalLoop=1;jettySize=auto;html=1;exitX=1;exitY=0.3333333333333333;exitDx=0;exitDy=0;exitPerimeter=0;entryX=0;entryY=0.5;entryDx=0;entryDy=0;" edge="1" parent="1" source="5CXv-RjiL0KrmXFOa_hq-1" target="5CXv-RjiL0KrmXFOa_hq-2">
          <mxGeometry relative="1" as="geometry" />
        </mxCell>
        <mxCell id="5CXv-RjiL0KrmXFOa_hq-30" style="edgeStyle=orthogonalEdgeStyle;rounded=0;orthogonalLoop=1;jettySize=auto;html=1;exitX=1;exitY=0.3333333333333333;exitDx=0;exitDy=0;exitPerimeter=0;entryX=0;entryY=0.5;entryDx=0;entryDy=0;" edge="1" parent="1" source="5CXv-RjiL0KrmXFOa_hq-1" target="5CXv-RjiL0KrmXFOa_hq-3">
          <mxGeometry relative="1" as="geometry" />
        </mxCell>
        <mxCell id="5CXv-RjiL0KrmXFOa_hq-31" style="edgeStyle=orthogonalEdgeStyle;rounded=0;orthogonalLoop=1;jettySize=auto;html=1;exitX=1;exitY=0.3333333333333333;exitDx=0;exitDy=0;exitPerimeter=0;entryX=0;entryY=0.5;entryDx=0;entryDy=0;" edge="1" parent="1" source="5CXv-RjiL0KrmXFOa_hq-1" target="5CXv-RjiL0KrmXFOa_hq-4">
          <mxGeometry relative="1" as="geometry" />
        </mxCell>
        <mxCell id="5CXv-RjiL0KrmXFOa_hq-32" style="edgeStyle=orthogonalEdgeStyle;rounded=0;orthogonalLoop=1;jettySize=auto;html=1;exitX=1;exitY=0.3333333333333333;exitDx=0;exitDy=0;exitPerimeter=0;entryX=0;entryY=0.5;entryDx=0;entryDy=0;" edge="1" parent="1" source="5CXv-RjiL0KrmXFOa_hq-1" target="5CXv-RjiL0KrmXFOa_hq-5">
          <mxGeometry relative="1" as="geometry" />
        </mxCell>
        <mxCell id="5CXv-RjiL0KrmXFOa_hq-33" style="edgeStyle=orthogonalEdgeStyle;rounded=0;orthogonalLoop=1;jettySize=auto;html=1;exitX=1;exitY=0.3333333333333333;exitDx=0;exitDy=0;exitPerimeter=0;entryX=0;entryY=0.5;entryDx=0;entryDy=0;" edge="1" parent="1" source="5CXv-RjiL0KrmXFOa_hq-1" target="5CXv-RjiL0KrmXFOa_hq-7">
          <mxGeometry relative="1" as="geometry" />
        </mxCell>
        <mxCell id="5CXv-RjiL0KrmXFOa_hq-34" style="edgeStyle=orthogonalEdgeStyle;rounded=0;orthogonalLoop=1;jettySize=auto;html=1;exitX=1;exitY=0.3333333333333333;exitDx=0;exitDy=0;exitPerimeter=0;entryX=0;entryY=0.5;entryDx=0;entryDy=0;" edge="1" parent="1" source="5CXv-RjiL0KrmXFOa_hq-1" target="5CXv-RjiL0KrmXFOa_hq-17">
          <mxGeometry relative="1" as="geometry" />
        </mxCell>
        <mxCell id="5CXv-RjiL0KrmXFOa_hq-35" style="edgeStyle=orthogonalEdgeStyle;rounded=0;orthogonalLoop=1;jettySize=auto;html=1;exitX=1;exitY=0.3333333333333333;exitDx=0;exitDy=0;exitPerimeter=0;entryX=0;entryY=0.5;entryDx=0;entryDy=0;" edge="1" parent="1" source="5CXv-RjiL0KrmXFOa_hq-1" target="5CXv-RjiL0KrmXFOa_hq-19">
          <mxGeometry relative="1" as="geometry" />
        </mxCell>
        <mxCell id="5CXv-RjiL0KrmXFOa_hq-36" style="edgeStyle=orthogonalEdgeStyle;rounded=0;orthogonalLoop=1;jettySize=auto;html=1;exitX=1;exitY=0.3333333333333333;exitDx=0;exitDy=0;exitPerimeter=0;entryX=0;entryY=0.5;entryDx=0;entryDy=0;" edge="1" parent="1" source="5CXv-RjiL0KrmXFOa_hq-1" target="5CXv-RjiL0KrmXFOa_hq-8">
          <mxGeometry relative="1" as="geometry" />
        </mxCell>
        <mxCell id="5CXv-RjiL0KrmXFOa_hq-37" style="edgeStyle=orthogonalEdgeStyle;rounded=0;orthogonalLoop=1;jettySize=auto;html=1;exitX=1;exitY=0.3333333333333333;exitDx=0;exitDy=0;exitPerimeter=0;entryX=0;entryY=0.5;entryDx=0;entryDy=0;" edge="1" parent="1" source="5CXv-RjiL0KrmXFOa_hq-1" target="5CXv-RjiL0KrmXFOa_hq-22">
          <mxGeometry relative="1" as="geometry" />
        </mxCell>
        <mxCell id="5CXv-RjiL0KrmXFOa_hq-38" style="edgeStyle=orthogonalEdgeStyle;rounded=0;orthogonalLoop=1;jettySize=auto;html=1;exitX=1;exitY=0.3333333333333333;exitDx=0;exitDy=0;exitPerimeter=0;entryX=0;entryY=0.5;entryDx=0;entryDy=0;" edge="1" parent="1" source="5CXv-RjiL0KrmXFOa_hq-1" target="5CXv-RjiL0KrmXFOa_hq-15">
          <mxGeometry relative="1" as="geometry" />
        </mxCell>
        <mxCell id="5CXv-RjiL0KrmXFOa_hq-39" style="edgeStyle=orthogonalEdgeStyle;rounded=0;orthogonalLoop=1;jettySize=auto;html=1;exitX=1;exitY=0.3333333333333333;exitDx=0;exitDy=0;exitPerimeter=0;entryX=0;entryY=0.5;entryDx=0;entryDy=0;" edge="1" parent="1" source="5CXv-RjiL0KrmXFOa_hq-1" target="5CXv-RjiL0KrmXFOa_hq-25">
          <mxGeometry relative="1" as="geometry" />
        </mxCell>
        <mxCell id="5CXv-RjiL0KrmXFOa_hq-40" style="edgeStyle=orthogonalEdgeStyle;rounded=0;orthogonalLoop=1;jettySize=auto;html=1;exitX=1;exitY=0.3333333333333333;exitDx=0;exitDy=0;exitPerimeter=0;entryX=0;entryY=0.5;entryDx=0;entryDy=0;" edge="1" parent="1" source="5CXv-RjiL0KrmXFOa_hq-1" target="5CXv-RjiL0KrmXFOa_hq-27">
          <mxGeometry relative="1" as="geometry" />
        </mxCell>
        <mxCell id="5CXv-RjiL0KrmXFOa_hq-41" style="edgeStyle=orthogonalEdgeStyle;rounded=0;orthogonalLoop=1;jettySize=auto;html=1;exitX=1;exitY=0.3333333333333333;exitDx=0;exitDy=0;exitPerimeter=0;entryX=0;entryY=0.5;entryDx=0;entryDy=0;" edge="1" parent="1" source="5CXv-RjiL0KrmXFOa_hq-1" target="5CXv-RjiL0KrmXFOa_hq-28">
          <mxGeometry relative="1" as="geometry" />
        </mxCell>
        <mxCell id="5CXv-RjiL0KrmXFOa_hq-43" style="edgeStyle=orthogonalEdgeStyle;rounded=0;orthogonalLoop=1;jettySize=auto;html=1;exitX=1;exitY=0.3333333333333333;exitDx=0;exitDy=0;exitPerimeter=0;entryX=0;entryY=0.5;entryDx=0;entryDy=0;" edge="1" parent="1" source="5CXv-RjiL0KrmXFOa_hq-1" target="5CXv-RjiL0KrmXFOa_hq-42">
          <mxGeometry relative="1" as="geometry" />
        </mxCell>
        <mxCell id="5CXv-RjiL0KrmXFOa_hq-1" value="USUARIO" style="shape=umlActor;verticalLabelPosition=bottom;verticalAlign=top;html=1;" vertex="1" parent="1">
          <mxGeometry x="-1490" y="-310" width="30" height="60" as="geometry" />
        </mxCell>
        <mxCell id="5CXv-RjiL0KrmXFOa_hq-2" value="Iniciar sesión" style="ellipse;whiteSpace=wrap;html=1;" vertex="1" parent="1">
          <mxGeometry x="-1270" y="-620" width="130" height="50" as="geometry" />
        </mxCell>
        <mxCell id="5CXv-RjiL0KrmXFOa_hq-3" value="&lt;div&gt;Registrarse&lt;/div&gt;" style="ellipse;whiteSpace=wrap;html=1;" vertex="1" parent="1">
          <mxGeometry x="-1270" y="-560" width="130" height="50" as="geometry" />
        </mxCell>
        <mxCell id="5CXv-RjiL0KrmXFOa_hq-4" value="&lt;div&gt;Recuperar Contraseña&lt;/div&gt;" style="ellipse;whiteSpace=wrap;html=1;" vertex="1" parent="1">
          <mxGeometry x="-1270" y="-500" width="130" height="50" as="geometry" />
        </mxCell>
        <mxCell id="5CXv-RjiL0KrmXFOa_hq-5" value="&lt;div&gt;Seleccionar actividad&lt;/div&gt;" style="ellipse;whiteSpace=wrap;html=1;" vertex="1" parent="1">
          <mxGeometry x="-1270" y="-440" width="130" height="50" as="geometry" />
        </mxCell>
        <mxCell id="5CXv-RjiL0KrmXFOa_hq-6" value="&lt;div&gt;Ver detalles actividad&lt;/div&gt;" style="ellipse;whiteSpace=wrap;html=1;" vertex="1" parent="1">
          <mxGeometry x="-930" y="-440" width="130" height="50" as="geometry" />
        </mxCell>
        <mxCell id="5CXv-RjiL0KrmXFOa_hq-7" value="&lt;div&gt;Ver historial actividades&lt;/div&gt;" style="ellipse;whiteSpace=wrap;html=1;" vertex="1" parent="1">
          <mxGeometry x="-1270" y="-380" width="130" height="50" as="geometry" />
        </mxCell>
        <mxCell id="5CXv-RjiL0KrmXFOa_hq-8" value="&lt;div&gt;Registrar peso&lt;/div&gt;" style="ellipse;whiteSpace=wrap;html=1;" vertex="1" parent="1">
          <mxGeometry x="-1270" y="-200" width="130" height="50" as="geometry" />
        </mxCell>
        <mxCell id="5CXv-RjiL0KrmXFOa_hq-9" value="&lt;div&gt;Registrar actividad&lt;/div&gt;" style="ellipse;whiteSpace=wrap;html=1;" vertex="1" parent="1">
          <mxGeometry x="-760" y="-440" width="130" height="50" as="geometry" />
        </mxCell>
        <mxCell id="5CXv-RjiL0KrmXFOa_hq-10" value="&lt;div&gt;Realizar actividad&lt;/div&gt;" style="ellipse;whiteSpace=wrap;html=1;" vertex="1" parent="1">
          <mxGeometry x="-1100" y="-440" width="130" height="50" as="geometry" />
        </mxCell>
        <mxCell id="5CXv-RjiL0KrmXFOa_hq-11" style="edgeStyle=orthogonalEdgeStyle;rounded=0;orthogonalLoop=1;jettySize=auto;html=1;exitX=0.5;exitY=1;exitDx=0;exitDy=0;" edge="1" parent="1" source="5CXv-RjiL0KrmXFOa_hq-10" target="5CXv-RjiL0KrmXFOa_hq-10">
          <mxGeometry relative="1" as="geometry" />
        </mxCell>
        <mxCell id="5CXv-RjiL0KrmXFOa_hq-12" value="&lt;div&gt;Eliminar actividad&lt;/div&gt;" style="ellipse;whiteSpace=wrap;html=1;" vertex="1" parent="1">
          <mxGeometry x="-1100" y="-380" width="130" height="50" as="geometry" />
        </mxCell>
        <mxCell id="5CXv-RjiL0KrmXFOa_hq-13" value="&lt;div&gt;Ver gráficos peso&lt;/div&gt;" style="ellipse;whiteSpace=wrap;html=1;" vertex="1" parent="1">
          <mxGeometry x="-930" y="-200" width="130" height="50" as="geometry" />
        </mxCell>
        <mxCell id="5CXv-RjiL0KrmXFOa_hq-14" value="&lt;div&gt;Registrar altura&lt;/div&gt;" style="ellipse;whiteSpace=wrap;html=1;" vertex="1" parent="1">
          <mxGeometry x="-1100" y="-200" width="130" height="50" as="geometry" />
        </mxCell>
        <mxCell id="5CXv-RjiL0KrmXFOa_hq-15" value="&lt;div&gt;Registrar tensión y pulso&lt;/div&gt;" style="ellipse;whiteSpace=wrap;html=1;" vertex="1" parent="1">
          <mxGeometry x="-1270" y="-80" width="130" height="50" as="geometry" />
        </mxCell>
        <mxCell id="5CXv-RjiL0KrmXFOa_hq-16" value="&lt;div&gt;Ver gráficos tensión y pulso&lt;/div&gt;" style="ellipse;whiteSpace=wrap;html=1;" vertex="1" parent="1">
          <mxGeometry x="-1100" y="-80" width="130" height="50" as="geometry" />
        </mxCell>
        <mxCell id="5CXv-RjiL0KrmXFOa_hq-17" value="&lt;div&gt;Registrar glucosa&lt;/div&gt;" style="ellipse;whiteSpace=wrap;html=1;" vertex="1" parent="1">
          <mxGeometry x="-1270" y="-320" width="130" height="50" as="geometry" />
        </mxCell>
        <mxCell id="5CXv-RjiL0KrmXFOa_hq-18" value="&lt;div&gt;Ver gráficos glucosa&lt;/div&gt;" style="ellipse;whiteSpace=wrap;html=1;" vertex="1" parent="1">
          <mxGeometry x="-1100" y="-320" width="130" height="50" as="geometry" />
        </mxCell>
        <mxCell id="5CXv-RjiL0KrmXFOa_hq-19" value="&lt;div&gt;Registrar alimentación&lt;/div&gt;" style="ellipse;whiteSpace=wrap;html=1;" vertex="1" parent="1">
          <mxGeometry x="-1270" y="-260" width="130" height="50" as="geometry" />
        </mxCell>
        <mxCell id="5CXv-RjiL0KrmXFOa_hq-20" value="&lt;div&gt;Ver historial de alimentación&lt;/div&gt;" style="ellipse;whiteSpace=wrap;html=1;" vertex="1" parent="1">
          <mxGeometry x="-1100" y="-260" width="130" height="50" as="geometry" />
        </mxCell>
        <mxCell id="5CXv-RjiL0KrmXFOa_hq-21" value="&lt;div&gt;Editar historial alimentaicón&lt;/div&gt;" style="ellipse;whiteSpace=wrap;html=1;" vertex="1" parent="1">
          <mxGeometry x="-930" y="-260" width="130" height="50" as="geometry" />
        </mxCell>
        <mxCell id="5CXv-RjiL0KrmXFOa_hq-22" value="&lt;div&gt;Regisrar medicación&lt;/div&gt;" style="ellipse;whiteSpace=wrap;html=1;" vertex="1" parent="1">
          <mxGeometry x="-1270" y="-140" width="130" height="50" as="geometry" />
        </mxCell>
        <mxCell id="5CXv-RjiL0KrmXFOa_hq-23" value="&lt;div&gt;Ver historial medicación&lt;/div&gt;" style="ellipse;whiteSpace=wrap;html=1;" vertex="1" parent="1">
          <mxGeometry x="-1100" y="-140" width="130" height="50" as="geometry" />
        </mxCell>
        <mxCell id="5CXv-RjiL0KrmXFOa_hq-24" value="&lt;div&gt;Guardar medicación en el calendario&lt;/div&gt;" style="ellipse;whiteSpace=wrap;html=1;" vertex="1" parent="1">
          <mxGeometry x="-930" y="-140" width="130" height="50" as="geometry" />
        </mxCell>
        <mxCell id="5CXv-RjiL0KrmXFOa_hq-25" value="&lt;div&gt;Ver resumen&lt;/div&gt;" style="ellipse;whiteSpace=wrap;html=1;" vertex="1" parent="1">
          <mxGeometry x="-1270" y="-20" width="130" height="50" as="geometry" />
        </mxCell>
        <mxCell id="5CXv-RjiL0KrmXFOa_hq-26" value="&lt;div&gt;Compartir resumen&lt;/div&gt;" style="ellipse;whiteSpace=wrap;html=1;" vertex="1" parent="1">
          <mxGeometry x="-1100" y="-20" width="130" height="50" as="geometry" />
        </mxCell>
        <mxCell id="5CXv-RjiL0KrmXFOa_hq-27" value="&lt;div&gt;Llamar emergencias&lt;/div&gt;" style="ellipse;whiteSpace=wrap;html=1;" vertex="1" parent="1">
          <mxGeometry x="-1270" y="40" width="130" height="50" as="geometry" />
        </mxCell>
        <mxCell id="5CXv-RjiL0KrmXFOa_hq-28" value="&lt;div&gt;Ver gráficas&lt;/div&gt;" style="ellipse;whiteSpace=wrap;html=1;" vertex="1" parent="1">
          <mxGeometry x="-1270" y="100" width="130" height="50" as="geometry" />
        </mxCell>
        <mxCell id="5CXv-RjiL0KrmXFOa_hq-42" value="Cerrar sesión" style="ellipse;whiteSpace=wrap;html=1;" vertex="1" parent="1">
          <mxGeometry x="-1270" y="160" width="130" height="50" as="geometry" />
        </mxCell>
        <mxCell id="5CXv-RjiL0KrmXFOa_hq-45" value="" style="html=1;verticalAlign=bottom;endArrow=open;dashed=1;endSize=8;curved=0;rounded=0;exitX=0;exitY=0.5;exitDx=0;exitDy=0;entryX=1;entryY=0.5;entryDx=0;entryDy=0;" edge="1" parent="1" source="5CXv-RjiL0KrmXFOa_hq-10" target="5CXv-RjiL0KrmXFOa_hq-5">
          <mxGeometry relative="1" as="geometry">
            <mxPoint x="-1430" y="-110" as="sourcePoint" />
            <mxPoint x="-1510" y="-110" as="targetPoint" />
          </mxGeometry>
        </mxCell>
        <mxCell id="5CXv-RjiL0KrmXFOa_hq-46" value="" style="html=1;verticalAlign=bottom;endArrow=open;dashed=1;endSize=8;curved=0;rounded=0;exitX=0;exitY=0.5;exitDx=0;exitDy=0;entryX=1;entryY=0.5;entryDx=0;entryDy=0;" edge="1" parent="1" source="5CXv-RjiL0KrmXFOa_hq-6" target="5CXv-RjiL0KrmXFOa_hq-10">
          <mxGeometry relative="1" as="geometry">
            <mxPoint x="-1420" y="-100" as="sourcePoint" />
            <mxPoint x="-1500" y="-100" as="targetPoint" />
          </mxGeometry>
        </mxCell>
        <mxCell id="5CXv-RjiL0KrmXFOa_hq-47" value="" style="html=1;verticalAlign=bottom;endArrow=open;dashed=1;endSize=8;curved=0;rounded=0;exitX=0;exitY=0.5;exitDx=0;exitDy=0;entryX=1;entryY=0.5;entryDx=0;entryDy=0;" edge="1" parent="1" source="5CXv-RjiL0KrmXFOa_hq-9" target="5CXv-RjiL0KrmXFOa_hq-6">
          <mxGeometry relative="1" as="geometry">
            <mxPoint x="-1410" y="-90" as="sourcePoint" />
            <mxPoint x="-1490" y="-90" as="targetPoint" />
          </mxGeometry>
        </mxCell>
        <mxCell id="5CXv-RjiL0KrmXFOa_hq-48" value="" style="html=1;verticalAlign=bottom;endArrow=open;dashed=1;endSize=8;curved=0;rounded=0;exitX=0;exitY=0.5;exitDx=0;exitDy=0;entryX=1;entryY=0.5;entryDx=0;entryDy=0;" edge="1" parent="1" source="5CXv-RjiL0KrmXFOa_hq-20" target="5CXv-RjiL0KrmXFOa_hq-19">
          <mxGeometry relative="1" as="geometry">
            <mxPoint x="-1400" y="-80" as="sourcePoint" />
            <mxPoint x="-1480" y="-80" as="targetPoint" />
          </mxGeometry>
        </mxCell>
        <mxCell id="5CXv-RjiL0KrmXFOa_hq-49" value="" style="html=1;verticalAlign=bottom;endArrow=open;dashed=1;endSize=8;curved=0;rounded=0;exitX=0;exitY=0.5;exitDx=0;exitDy=0;" edge="1" parent="1" source="5CXv-RjiL0KrmXFOa_hq-12" target="5CXv-RjiL0KrmXFOa_hq-7">
          <mxGeometry relative="1" as="geometry">
            <mxPoint x="-1390" y="-70" as="sourcePoint" />
            <mxPoint x="-1470" y="-70" as="targetPoint" />
          </mxGeometry>
        </mxCell>
        <mxCell id="5CXv-RjiL0KrmXFOa_hq-50" value="" style="html=1;verticalAlign=bottom;endArrow=open;dashed=1;endSize=8;curved=0;rounded=0;exitX=0;exitY=0.5;exitDx=0;exitDy=0;" edge="1" parent="1" source="5CXv-RjiL0KrmXFOa_hq-18" target="5CXv-RjiL0KrmXFOa_hq-17">
          <mxGeometry relative="1" as="geometry">
            <mxPoint x="-1380" y="-60" as="sourcePoint" />
            <mxPoint x="-1460" y="-60" as="targetPoint" />
          </mxGeometry>
        </mxCell>
        <mxCell id="5CXv-RjiL0KrmXFOa_hq-51" value="" style="html=1;verticalAlign=bottom;endArrow=open;dashed=1;endSize=8;curved=0;rounded=0;exitX=0;exitY=0.5;exitDx=0;exitDy=0;entryX=1;entryY=0.5;entryDx=0;entryDy=0;" edge="1" parent="1" source="5CXv-RjiL0KrmXFOa_hq-14" target="5CXv-RjiL0KrmXFOa_hq-8">
          <mxGeometry relative="1" as="geometry">
            <mxPoint x="-1370" y="-50" as="sourcePoint" />
            <mxPoint x="-1450" y="-50" as="targetPoint" />
          </mxGeometry>
        </mxCell>
        <mxCell id="5CXv-RjiL0KrmXFOa_hq-52" value="" style="html=1;verticalAlign=bottom;endArrow=open;dashed=1;endSize=8;curved=0;rounded=0;exitX=0;exitY=0.5;exitDx=0;exitDy=0;entryX=1;entryY=0.5;entryDx=0;entryDy=0;" edge="1" parent="1" source="5CXv-RjiL0KrmXFOa_hq-23" target="5CXv-RjiL0KrmXFOa_hq-22">
          <mxGeometry relative="1" as="geometry">
            <mxPoint x="-1360" y="-40" as="sourcePoint" />
            <mxPoint x="-1440" y="-40" as="targetPoint" />
          </mxGeometry>
        </mxCell>
        <mxCell id="5CXv-RjiL0KrmXFOa_hq-53" value="" style="html=1;verticalAlign=bottom;endArrow=open;dashed=1;endSize=8;curved=0;rounded=0;exitX=0;exitY=0.5;exitDx=0;exitDy=0;entryX=1;entryY=0.5;entryDx=0;entryDy=0;" edge="1" parent="1" source="5CXv-RjiL0KrmXFOa_hq-16" target="5CXv-RjiL0KrmXFOa_hq-15">
          <mxGeometry relative="1" as="geometry">
            <mxPoint x="-1350" y="-30" as="sourcePoint" />
            <mxPoint x="-1130" y="-30" as="targetPoint" />
          </mxGeometry>
        </mxCell>
        <mxCell id="5CXv-RjiL0KrmXFOa_hq-54" value="" style="html=1;verticalAlign=bottom;endArrow=open;dashed=1;endSize=8;curved=0;rounded=0;exitX=0;exitY=0.5;exitDx=0;exitDy=0;entryX=1;entryY=0.5;entryDx=0;entryDy=0;" edge="1" parent="1" source="5CXv-RjiL0KrmXFOa_hq-26" target="5CXv-RjiL0KrmXFOa_hq-25">
          <mxGeometry relative="1" as="geometry">
            <mxPoint x="-1340" y="-20" as="sourcePoint" />
            <mxPoint x="-1420" y="-20" as="targetPoint" />
          </mxGeometry>
        </mxCell>
        <mxCell id="5CXv-RjiL0KrmXFOa_hq-55" value="" style="html=1;verticalAlign=bottom;endArrow=open;dashed=1;endSize=8;curved=0;rounded=0;exitX=0;exitY=0.5;exitDx=0;exitDy=0;entryX=1;entryY=0.5;entryDx=0;entryDy=0;" edge="1" parent="1" source="5CXv-RjiL0KrmXFOa_hq-21" target="5CXv-RjiL0KrmXFOa_hq-20">
          <mxGeometry relative="1" as="geometry">
            <mxPoint x="-1330" y="-10" as="sourcePoint" />
            <mxPoint x="-1410" y="-10" as="targetPoint" />
          </mxGeometry>
        </mxCell>
        <mxCell id="5CXv-RjiL0KrmXFOa_hq-56" value="" style="html=1;verticalAlign=bottom;endArrow=open;dashed=1;endSize=8;curved=0;rounded=0;exitX=0;exitY=0.5;exitDx=0;exitDy=0;entryX=1;entryY=0.5;entryDx=0;entryDy=0;" edge="1" parent="1" source="5CXv-RjiL0KrmXFOa_hq-13" target="5CXv-RjiL0KrmXFOa_hq-14">
          <mxGeometry relative="1" as="geometry">
            <mxPoint x="-1320" as="sourcePoint" />
            <mxPoint x="-1400" as="targetPoint" />
          </mxGeometry>
        </mxCell>
        <mxCell id="5CXv-RjiL0KrmXFOa_hq-57" value="" style="html=1;verticalAlign=bottom;endArrow=open;dashed=1;endSize=8;curved=0;rounded=0;exitX=0;exitY=0.5;exitDx=0;exitDy=0;entryX=1;entryY=0.5;entryDx=0;entryDy=0;" edge="1" parent="1" source="5CXv-RjiL0KrmXFOa_hq-24" target="5CXv-RjiL0KrmXFOa_hq-23">
          <mxGeometry relative="1" as="geometry">
            <mxPoint x="-1310" y="10" as="sourcePoint" />
            <mxPoint x="-1390" y="10" as="targetPoint" />
          </mxGeometry>
        </mxCell>
      </root>
    </mxGraphModel>
  </diagram>
</mxfile>
